<?xml version="1.0" encoding="UTF-8" standalone="no"?>
<!-- Created with Inkscape (http://www.inkscape.org/) -->

<svg
   xmlns:dc="http://purl.org/dc/elements/1.1/"
   xmlns:cc="http://creativecommons.org/ns#"
   xmlns:rdf="http://www.w3.org/1999/02/22-rdf-syntax-ns#"
   xmlns:svg="http://www.w3.org/2000/svg"
   xmlns="http://www.w3.org/2000/svg"
   xmlns:xlink="http://www.w3.org/1999/xlink"
   xmlns:sodipodi="http://sodipodi.sourceforge.net/DTD/sodipodi-0.dtd"
   xmlns:inkscape="http://www.inkscape.org/namespaces/inkscape"
   width="448.51831"
   height="382.50024"
   id="svg2"
   version="1.1"
   inkscape:version="0.48.4 r9939"
   sodipodi:docname="clouds_reconstructions_supp.svg">
  <defs
     id="defs4">
    <marker
       inkscape:stockid="Arrow1Lend"
       orient="auto"
       refY="0"
       refX="0"
       id="Arrow1Lend"
       style="overflow:visible">
      <path
         id="path3927"
         d="M 0,0 5,-5 -12.5,0 5,5 0,0 z"
         style="fill-rule:evenodd;stroke:#000000;stroke-width:1pt"
         transform="matrix(-0.8,0,0,-0.8,-10,0)"
         inkscape:connector-curvature="0" />
    </marker>
    <marker
       inkscape:stockid="Arrow2Mstart"
       orient="auto"
       refY="0"
       refX="0"
       id="Arrow2Mstart"
       style="overflow:visible">
      <path
         id="path3948"
         style="fill-rule:evenodd;stroke-width:0.625;stroke-linejoin:round"
         d="M 8.7185878,4.0337352 -2.2072895,0.01601326 8.7185884,-4.0017078 c -1.7454984,2.3720609 -1.7354408,5.6174519 -6e-7,8.035443 z"
         transform="scale(0.6,0.6)"
         inkscape:connector-curvature="0" />
    </marker>
    <marker
       inkscape:stockid="Arrow2Mend"
       orient="auto"
       refY="0"
       refX="0"
       id="Arrow2Mend"
       style="overflow:visible">
      <path
         id="path3951"
         style="fill-rule:evenodd;stroke-width:0.625;stroke-linejoin:round"
         d="M 8.7185878,4.0337352 -2.2072895,0.01601326 8.7185884,-4.0017078 c -1.7454984,2.3720609 -1.7354408,5.6174519 -6e-7,8.035443 z"
         transform="scale(-0.6,-0.6)"
         inkscape:connector-curvature="0" />
    </marker>
  </defs>
  <sodipodi:namedview
     id="base"
     pagecolor="#ffffff"
     bordercolor="#666666"
     borderopacity="1.0"
     inkscape:pageopacity="0.0"
     inkscape:pageshadow="2"
     inkscape:zoom="0.98994949"
     inkscape:cx="572.49874"
     inkscape:cy="242.39143"
     inkscape:document-units="px"
     inkscape:current-layer="layer2"
     showgrid="false"
     inkscape:window-width="1920"
     inkscape:window-height="1058"
     inkscape:window-x="1912"
     inkscape:window-y="-8"
     inkscape:window-maximized="1"
     fit-margin-top="0"
     fit-margin-left="0"
     fit-margin-right="0"
     fit-margin-bottom="0" />
  <metadata
     id="metadata7">
    <rdf:RDF>
      <cc:Work
         rdf:about="">
        <dc:format>image/svg+xml</dc:format>
        <dc:type
           rdf:resource="http://purl.org/dc/dcmitype/StillImage" />
        <dc:title />
      </cc:Work>
    </rdf:RDF>
  </metadata>
  <g
     inkscape:label="Layer 1"
     inkscape:groupmode="layer"
     id="layer1"
     transform="translate(-35.903679,-352.89267)" />
  <g
     inkscape:groupmode="layer"
     id="layer2"
     inkscape:label="Layer"
     transform="translate(-35.903679,-44.624985)">
    <image
       sodipodi:absref="C:\Users\amitibo\Dropbox\YoavAmitAides\text\articles\accv2014\figures\snapshot_supp3.png"
       xlink:href="snapshot_supp3.png"
       width="207.66347"
       height="208.786"
       id="image3126"
       x="265.55618"
       y="44.624985" />
    <image
       sodipodi:absref="C:\Users\amitibo\Dropbox\YoavAmitAides\text\articles\accv2014\figures\snapshot_supp2.png"
       xlink:href="snapshot_supp2.png"
       width="222.21989"
       height="189.87955"
       id="image3115"
       x="35.903679"
       y="56.41069" />
    <flowRoot
       xml:space="preserve"
       id="flowRoot3074"
       style="font-size:20px;font-style:normal;font-weight:normal;line-height:125%;letter-spacing:0px;word-spacing:0px;fill:#000000;fill-opacity:1;stroke:none;font-family:Times New Roman;-inkscape-font-specification:Times New Roman"><flowRegion
         id="flowRegion3076"><rect
           id="rect3078"
           width="79.802048"
           height="37.375645"
           x="142.4315"
           y="94.061317" /></flowRegion><flowPara
         id="flowPara3080" /></flowRoot>    <flowRoot
       xml:space="preserve"
       id="flowRoot3082"
       style="font-size:20px;font-style:normal;font-weight:normal;line-height:125%;letter-spacing:0px;word-spacing:0px;fill:#000000;fill-opacity:1;stroke:none;font-family:Times New Roman;-inkscape-font-specification:Times New Roman"><flowRegion
         id="flowRegion3084"><rect
           id="rect3086"
           width="14.647212"
           height="46.467018"
           x="561.64484"
           y="78.909035" /></flowRegion><flowPara
         id="flowPara3088" /></flowRoot>    <g
       id="layer1-7"
       transform="matrix(-0.00374718,-0.03905668,0.045045,-0.02734897,203.36457,259.47348)">
      <path
         d="m 373.75,91.496 c -0.95,-1.132 -74.87,153.23 -164.19,343.02 -160.8,341.68 -162.27,345.16 -156.49,350.27 3.203,2.83 6.954,4.79 8.319,4.34 1.365,-0.46 71.171,-73.88 155.14,-163.1 83.97,-89.22 153.66,-162.83 154.87,-163.56 1.2,-0.72 71.42,72.34 156.04,162.29 84.62,89.95 155.21,163.82 156.95,164.19 1.74,0.37 5.57,-1.19 8.5,-3.44 5.04,-3.86 -3.75,-23.46 -156.04,-348 -88.77,-189.18 -162.15,-344.88 -163.1,-346.01 z m -2.72,42.694 c 1.4,-1.53 2.45,63.91 2.45,148.36 V 433.62 L 231.18,584.96 C 106.57,717.42 87.38,737.82 86.08,738.47 c 0.143,-0.35 1.009,-1.57 1.361,-2.26 0.81,-1.59 64.409,-137.07 141.3,-301.05 76.89,-163.99 140.93,-299.45 142.29,-300.97 z m -99.77,642 V 1021 h 32.11 V 816.18 L 411.92,1021 h 44.6 V 776.19 h -32.11 v 204.8 L 315.85,776.19 h -44.59 z"
         id="path2452"
         inkscape:connector-curvature="0" />
    </g>
    <g
       id="layer1-0"
       transform="matrix(0.01733378,-0.02672631,0.02672631,0.01733378,431.34332,214.94975)">
      <path
         d="m 373.75,91.496 c -0.95,-1.132 -74.87,153.23 -164.19,343.02 -160.8,341.68 -162.27,345.16 -156.49,350.27 3.203,2.83 6.954,4.79 8.319,4.34 1.365,-0.46 71.171,-73.88 155.14,-163.1 83.97,-89.22 153.66,-162.83 154.87,-163.56 1.2,-0.72 71.42,72.34 156.04,162.29 84.62,89.95 155.21,163.82 156.95,164.19 1.74,0.37 5.57,-1.19 8.5,-3.44 5.04,-3.86 -3.75,-23.46 -156.04,-348 -88.77,-189.18 -162.15,-344.88 -163.1,-346.01 z m -2.72,42.694 c 1.4,-1.53 2.45,63.91 2.45,148.36 V 433.62 L 231.18,584.96 C 106.57,717.42 87.38,737.82 86.08,738.47 c 0.143,-0.35 1.009,-1.57 1.361,-2.26 0.81,-1.59 64.409,-137.07 141.3,-301.05 76.89,-163.99 140.93,-299.45 142.29,-300.97 z m -99.77,642 V 1021 h 32.11 V 816.18 L 411.92,1021 h 44.6 V 776.19 h -32.11 v 204.8 L 315.85,776.19 h -44.59 z"
         id="path2452-9"
         inkscape:connector-curvature="0" />
    </g>
    <g
       id="g3166"
       transform="translate(-86.729321,32.745409)">
      <path
         style="fill:none;stroke:#ffffff;stroke-width:0.67683542px;stroke-linecap:butt;stroke-linejoin:miter;stroke-opacity:1"
         d="m 190.83245,161.07171 27.34828,2.73483"
         id="path3106"
         inkscape:connector-curvature="0" />
      <flowRoot
         xml:space="preserve"
         id="flowRoot3108"
         style="font-size:20px;font-style:normal;font-weight:normal;line-height:125%;letter-spacing:0px;word-spacing:0px;fill:#ffffff;fill-opacity:1;stroke:none;font-family:Times New Roman;-inkscape-font-specification:Times New Roman"
         inkscape:transform-center-y="-29.411612"
         transform="matrix(0.67683542,0.05552069,0,0.67683542,93.404199,37.885372)"><flowRegion
           id="flowRegion3110"><rect
             id="rect3112"
             width="91.923882"
             height="32.324883"
             x="159.6041"
             y="149.61971"
             style="fill:#ffffff" /></flowRegion><flowPara
           id="flowPara3114">650 m</flowPara></flowRoot>    </g>
    <g
       id="g3159"
       transform="translate(-79.832626,13.411486)">
      <path
         inkscape:connector-curvature="0"
         id="path3072"
         d="m 180.57684,112.87037 27.34828,2.73482"
         style="fill:none;stroke:#ffffff;stroke-width:0.67683542px;stroke-linecap:butt;stroke-linejoin:miter;stroke-opacity:1" />
      <flowRoot
         transform="matrix(0.67683542,0.05552069,0,0.67683542,79.388205,-11.683387)"
         inkscape:transform-center-y="-29.411612"
         style="font-size:20px;font-style:normal;font-weight:normal;line-height:125%;letter-spacing:0px;word-spacing:0px;fill:#ffffff;fill-opacity:1;stroke:none;font-family:Times New Roman;-inkscape-font-specification:Times New Roman"
         id="flowRoot3098"
         xml:space="preserve"><flowRegion
           id="flowRegion3100"><rect
             style="fill:#ffffff"
             y="149.61971"
             x="159.6041"
             height="32.324883"
             width="91.923882"
             id="rect3102" /></flowRegion><flowPara
           id="flowPara3104">1450 m</flowPara></flowRoot>    </g>
    <flowRoot
       xml:space="preserve"
       id="flowRoot3116"
       style="font-size:20px;font-style:normal;font-weight:normal;line-height:125%;letter-spacing:0px;word-spacing:0px;fill:#000000;fill-opacity:1;stroke:none;font-family:Times New Roman;-inkscape-font-specification:Times New Roman"
       transform="matrix(0.67683542,0,0,0.67683542,29.357625,24.740288)"><flowRegion
         id="flowRegion3118"><rect
           id="rect3120"
           width="103.03556"
           height="41.416256"
           x="138.3909"
           y="275.3837" /></flowRegion><flowPara
         id="flowPara3122">cameras</flowPara></flowRoot>    <g
       id="g3173"
       transform="matrix(1,0.16103108,0,1,-2.2728432,-60.243143)">
      <flowRoot
         transform="matrix(0.68998126,0.24014909,-0.08947245,0.63279902,125.38844,-42.043195)"
         style="font-size:20px;font-style:normal;font-weight:normal;line-height:125%;letter-spacing:0px;word-spacing:0px;fill:#000000;fill-opacity:1;stroke:none;font-family:Times New Roman;-inkscape-font-specification:Times New Roman"
         id="flowRoot3124"
         xml:space="preserve"><flowRegion
           id="flowRegion3126"><rect
             y="293.56644"
             x="304.05591"
             height="34.345188"
             width="62.629459"
             id="rect3128" /></flowRegion><flowPara
           id="flowPara3130">2000 m</flowPara></flowRoot>      <path
         inkscape:connector-curvature="0"
         id="path3132"
         d="m 266.72393,205.17081 36.23647,15.72527"
         style="fill:none;stroke:#000000;stroke-width:0.67683542px;stroke-linecap:butt;stroke-linejoin:miter;stroke-opacity:1;marker-start:url(#Arrow2Mstart)" />
      <path
         inkscape:connector-curvature="0"
         id="path3132-4"
         d="m 351.16175,239.69802 36.23647,15.72526"
         style="fill:none;stroke:#000000;stroke-width:0.67683542px;stroke-linecap:butt;stroke-linejoin:miter;stroke-opacity:1;marker-end:url(#Arrow2Mend)" />
    </g>
    <g
       id="g3188"
       transform="translate(14.285714,26.428572)">
      <flowRoot
         transform="matrix(0.67683542,0,0,0.67683542,0.76189594,-128.21563)"
         style="font-size:20px;font-style:normal;font-weight:normal;line-height:125%;letter-spacing:0px;word-spacing:0px;fill:#000000;fill-opacity:1;stroke:none;font-family:Times New Roman;-inkscape-font-specification:Times New Roman"
         id="flowRoot4734"
         xml:space="preserve"><flowRegion
           id="flowRegion4736"><rect
             y="375.38879"
             x="47.477169"
             height="32.324883"
             width="43.436558"
             id="rect4738" /></flowRegion><flowPara
           id="flowPara4740">up</flowPara></flowRoot>      <path
         inkscape:connector-curvature="0"
         id="path4742"
         d="M 38.365784,120.39115 36.314662,85.522086"
         style="opacity:0.98999999;fill:none;stroke:#000000;stroke-width:0.67683542px;stroke-linecap:butt;stroke-linejoin:miter;stroke-opacity:1;marker-end:url(#Arrow1Lend)" />
    </g>
    <g
       id="g3181"
       transform="matrix(0.97643609,-0.55837989,0.21580677,0.90072238,-20.993967,282.70139)">
      <flowRoot
         transform="matrix(0.67683542,0,0.16004085,0.67683542,379.75561,-135.54868)"
         style="font-size:20px;font-style:normal;font-weight:normal;line-height:125%;letter-spacing:0px;word-spacing:0px;fill:#000000;fill-opacity:1;stroke:none;font-family:Times New Roman;-inkscape-font-specification:Times New Roman"
         id="flowRoot4734-8"
         xml:space="preserve"><flowRegion
           id="flowRegion4736-8"><rect
             y="375.38879"
             x="47.477169"
             height="32.324883"
             width="43.436558"
             id="rect4738-2" /></flowRegion><flowPara
           id="flowPara4740-4">up</flowPara></flowRoot>      <path
         inkscape:connector-curvature="0"
         id="path4959"
         d="M 475.81327,117.80146 468.078,98.946752"
         style="fill:none;stroke:#000000;stroke-width:0.67683542px;stroke-linecap:butt;stroke-linejoin:miter;stroke-opacity:1;marker-end:url(#Arrow1Lend)" />
    </g>
    <flowRoot
       xml:space="preserve"
       id="flowRoot5905"
       style="font-size:10px;font-style:normal;font-weight:normal;line-height:125%;letter-spacing:0px;word-spacing:0px;fill:#000000;fill-opacity:1;stroke:none;display:inline;font-family:Times New Roman;-inkscape-font-specification:Times New Roman"
       transform="matrix(0.97575767,0,0,0.97575767,16.011957,-240.67609)"><flowRegion
         id="flowRegion5907"><rect
           id="rect5909"
           width="70.710678"
           height="32.324883"
           x="130.30968"
           y="498.79858"
           style="font-size:10px" /></flowRegion><flowPara
         id="flowPara5911">(a)</flowPara></flowRoot>    <flowRoot
       transform="translate(190.10985,-253.01843)"
       xml:space="preserve"
       id="flowRoot5905-9"
       style="font-size:10px;font-style:normal;font-weight:normal;line-height:125%;letter-spacing:0px;word-spacing:0px;fill:#000000;fill-opacity:1;stroke:none;display:inline;font-family:Times New Roman;-inkscape-font-specification:Times New Roman"><flowRegion
         id="flowRegion5907-8"><rect
           id="rect5909-3"
           width="70.710678"
           height="32.324883"
           x="130.30968"
           y="498.79858"
           style="font-size:10px" /></flowRegion><flowPara
         id="flowPara5911-8">(b)</flowPara></flowRoot>    <flowRoot
       transform="translate(12.718291,-81.998121)"
       xml:space="preserve"
       id="flowRoot5905-6"
       style="font-size:10px;font-style:normal;font-weight:normal;line-height:125%;letter-spacing:0px;word-spacing:0px;fill:#000000;fill-opacity:1;stroke:none;display:inline;font-family:Times New Roman;-inkscape-font-specification:Times New Roman"><flowRegion
         id="flowRegion5907-9"><rect
           id="rect5909-8"
           width="70.710678"
           height="32.324883"
           x="130.30968"
           y="498.79858"
           style="font-size:10px" /></flowRegion><flowPara
         id="flowPara5911-6">(c)</flowPara></flowRoot>    <flowRoot
       transform="translate(233.24047,-81.998121)"
       xml:space="preserve"
       id="flowRoot5905-62-5"
       style="font-size:10px;font-style:normal;font-weight:normal;line-height:125%;letter-spacing:0px;word-spacing:0px;fill:#000000;fill-opacity:1;stroke:none;display:inline;font-family:Times New Roman;-inkscape-font-specification:Times New Roman"><flowRegion
         id="flowRegion5907-3-5"><rect
           id="rect5909-82-1"
           width="70.710678"
           height="32.324883"
           x="130.30968"
           y="498.79858"
           style="font-size:10px" /></flowRegion><flowPara
         id="flowPara5911-62-7">(d)</flowPara></flowRoot>    <image
       y="266.8811"
       x="295.11395"
       id="image3203"
       xlink:href="file:///C:/Users/amitibo/Dropbox/YoavAmitAides/text/articles/accv2014/figures/normalized_4.jpeg"
       height="148.54796"
       width="148.54796" />
    <image
       y="265.29727"
       x="72.739647"
       id="image3214"
       xlink:href="file:///C:/Users/amitibo/Dropbox/YoavAmitAides/text/articles/accv2014/figures/normalized_3.jpeg"
       height="148.54796"
       width="148.54796" />
  </g>
</svg>
