<?xml version="1.0" encoding="UTF-8" standalone="no"?>
<!-- Created with Inkscape (http://www.inkscape.org/) -->

<svg
   xmlns:dc="http://purl.org/dc/elements/1.1/"
   xmlns:cc="http://creativecommons.org/ns#"
   xmlns:rdf="http://www.w3.org/1999/02/22-rdf-syntax-ns#"
   xmlns:svg="http://www.w3.org/2000/svg"
   xmlns="http://www.w3.org/2000/svg"
   xmlns:xlink="http://www.w3.org/1999/xlink"
   xmlns:sodipodi="http://sodipodi.sourceforge.net/DTD/sodipodi-0.dtd"
   xmlns:inkscape="http://www.inkscape.org/namespaces/inkscape"
   width="462.94299"
   height="167.73384"
   id="svg2"
   version="1.1"
   inkscape:version="0.48.4 r9939"
   sodipodi:docname="sun_moon.svg">
  <sodipodi:namedview
     id="base"
     pagecolor="#ffffff"
     bordercolor="#666666"
     borderopacity="1.0"
     inkscape:pageopacity="0.0"
     inkscape:pageshadow="2"
     inkscape:zoom="1.4"
     inkscape:cx="213.3222"
     inkscape:cy="157.81822"
     inkscape:document-units="px"
     inkscape:current-layer="layer1"
     showgrid="false"
     inkscape:window-width="1920"
     inkscape:window-height="1058"
     inkscape:window-x="1912"
     inkscape:window-y="-8"
     inkscape:window-maximized="1"
     units="in"
     inkscape:snap-bbox="true"
     inkscape:bbox-paths="true"
     inkscape:bbox-nodes="true"
     inkscape:snap-bbox-edge-midpoints="true"
     inkscape:snap-bbox-midpoints="true"
     inkscape:object-paths="true"
     inkscape:snap-intersection-paths="true"
     inkscape:snap-smooth-nodes="true"
     inkscape:object-nodes="true"
     inkscape:snap-midpoints="false"
     inkscape:snap-object-midpoints="false"
     inkscape:snap-center="false"
     inkscape:snap-global="false"
     inkscape:snap-nodes="true"
     fit-margin-top="0"
     fit-margin-left="0"
     fit-margin-right="0"
     fit-margin-bottom="0" />
  <defs
     id="defs4">
    <marker
       style="overflow:visible"
       id="Arrow1Mend"
       refX="0"
       refY="0"
       orient="auto"
       inkscape:stockid="Arrow1Mend">
      <path
         inkscape:connector-curvature="0"
         transform="matrix(-0.4,0,0,-0.4,-4,0)"
         style="fill-rule:evenodd;stroke:#000000;stroke-width:1pt"
         d="M 0,0 5,-5 -12.5,0 5,5 0,0 z"
         id="path4009" />
    </marker>
    <marker
       style="overflow:visible"
       id="Arrow1Lend"
       refX="0"
       refY="0"
       orient="auto"
       inkscape:stockid="Arrow1Lend">
      <path
         inkscape:connector-curvature="0"
         transform="matrix(-0.8,0,0,-0.8,-10,0)"
         style="fill-rule:evenodd;stroke:#000000;stroke-width:1pt"
         d="M 0,0 5,-5 -12.5,0 5,5 0,0 z"
         id="path4003" />
    </marker>
    <marker
       style="overflow:visible"
       id="Arrow1Mend-1"
       refX="0"
       refY="0"
       orient="auto"
       inkscape:stockid="Arrow1Mend">
      <path
         inkscape:connector-curvature="0"
         transform="matrix(-0.4,0,0,-0.4,-4,0)"
         style="fill-rule:evenodd;stroke:#000000;stroke-width:1pt"
         d="M 0,0 5,-5 -12.5,0 5,5 0,0 z"
         id="path4009-7" />
    </marker>
    <marker
       style="overflow:visible"
       id="Arrow1MendK"
       refX="0"
       refY="0"
       orient="auto"
       inkscape:stockid="Arrow1MendK">
      <path
         inkscape:connector-curvature="0"
         transform="matrix(-0.4,0,0,-0.4,-4,0)"
         style="fill:#0000ff;fill-rule:evenodd;stroke:#0000ff;stroke-width:1pt"
         d="M 0,0 5,-5 -12.5,0 5,5 0,0 z"
         id="path3874" />
    </marker>
  </defs>
  <metadata
     id="metadata7">
    <rdf:RDF>
      <cc:Work
         rdf:about="">
        <dc:format>image/svg+xml</dc:format>
        <dc:type
           rdf:resource="http://purl.org/dc/dcmitype/StillImage" />
        <dc:title></dc:title>
      </cc:Work>
    </rdf:RDF>
  </metadata>
  <g
     style="display:inline"
     transform="translate(-88.225237,-397.43207)"
     id="layer1"
     inkscape:groupmode="layer"
     inkscape:label="Layer 1">
    <image
       sodipodi:absref="C:\Users\amitibo\Dropbox\YoavAmitAides\text\articles\accv2014\figures\sun.jpg"
       xlink:href="sun.jpg"
       y="401.78452"
       x="-546.8158"
       id="image2993-1"
       height="149.38373"
       width="149.38373"
       transform="matrix(0,-1,1,0,0,0)" />
    <image
       sodipodi:absref="C:\Users\amitibo\Dropbox\YoavAmitAides\text\articles\accv2014\figures\moon.jpg"
       xlink:href="moon.jpg"
       y="237.02116"
       x="-546.8158"
       id="image2993"
       height="149.38373"
       width="149.38373"
       transform="matrix(0,-1,1,0,0,0)" />
    <rect
       y="461.36438"
       x="321.57794"
       height="19.362539"
       width="40.501457"
       id="rect3025-7"
       style="fill:none;stroke:#ffffff;stroke-width:0.07369605;stroke-miterlimit:4;stroke-dasharray:none;stroke-dashoffset:0" />
    <rect
       y="404.22824"
       x="267.45837"
       height="40.164345"
       width="84.013489"
       id="rect3025"
       style="fill:none;stroke:#ffffff;stroke-width:1.47392082;stroke-miterlimit:4;stroke-dasharray:none" />
    <image
       sodipodi:absref="C:\Users\amitibo\Dropbox\YoavAmitAides\text\articles\eccv2014\figures\jupiter.jpg"
       xlink:href="C:\Users\amitibo\Dropbox\YoavAmitAides\text\articles\eccv2014\figures\jupiter.jpg"
       transform="matrix(0,-1,1,0,0,0)"
       width="40.164345"
       height="84.013489"
       id="image3022"
       x="-444.39258"
       y="267.45837" />
    <path
       sodipodi:nodetypes="cc"
       inkscape:connector-curvature="0"
       id="path3819"
       d="m 351.47184,404.22826 10.60753,57.13613"
       style="fill:none;stroke:#ffffff;stroke-width:0.07369605;stroke-linecap:butt;stroke-linejoin:miter;stroke-miterlimit:4;stroke-opacity:1;stroke-dasharray:none" />
    <path
       inkscape:connector-curvature="0"
       id="path3825"
       d="M 321.57791,480.72694 267.45835,444.3926"
       style="fill:none;stroke:#ffffff;stroke-width:0.07369605;stroke-linecap:butt;stroke-linejoin:miter;stroke-miterlimit:4;stroke-opacity:1;stroke-dasharray:none" />
    <flowRoot
       transform="translate(0,308.27129)"
       style="font-size:10px;font-style:normal;font-weight:normal;line-height:125%;letter-spacing:0px;word-spacing:0px;fill:#000000;fill-opacity:1;stroke:none;font-family:Times New Roman;-inkscape-font-specification:Times New Roman"
       id="flowRoot3827"
       xml:space="preserve"><flowRegion
         id="flowRegion3829"><rect
           style="font-size:10px"
           y="246.59436"
           x="111.62186"
           height="23.233509"
           width="39.39595"
           id="rect3831" /></flowRegion><flowPara
         id="flowPara3833" /></flowRoot>    <g
       transform="translate(34,4)"
       id="g4857">
      <path
         sodipodi:type="arc"
         style="fill:#ffff00;fill-opacity:1;stroke:#000000;stroke-width:1.26300001;stroke-miterlimit:4;stroke-opacity:1;stroke-dasharray:none;stroke-dashoffset:0;display:inline"
         id="path5658"
         sodipodi:cx="70.710678"
         sodipodi:cy="255.35182"
         sodipodi:rx="32.324883"
         sodipodi:ry="32.324883"
         d="m 103.03556,255.35182 a 32.324883,32.324883 0 1 1 -64.649764,0 32.324883,32.324883 0 1 1 64.649764,0 z"
         transform="matrix(0.42415502,0,0,0.42415502,38.211563,299.31391)" />
      <flowRoot
         xml:space="preserve"
         id="flowRoot5719-2-5"
         style="font-size:10px;font-style:normal;font-weight:normal;line-height:125%;letter-spacing:0px;word-spacing:0px;fill:#000000;fill-opacity:1;stroke:none;display:inline;font-family:Times New Roman;-inkscape-font-specification:Times New Roman"
         transform="translate(-92.71362,-108.17646)"><flowRegion
           id="flowRegion5721-45-1"><rect
             id="rect5723-2-7"
             width="146.42857"
             height="62.142857"
             x="152.85715"
             y="510.93362"
             style="font-size:10px" /></flowRegion><flowPara
           id="flowPara5725-9-1">Sun</flowPara></flowRoot>    </g>
    <flowRoot
       transform="translate(38.361685,18.15485)"
       style="font-size:10px;font-style:normal;font-weight:normal;line-height:125%;letter-spacing:0px;word-spacing:0px;fill:#000000;fill-opacity:1;stroke:none;display:inline;font-family:Times New Roman;-inkscape-font-specification:Times New Roman"
       id="flowRoot5719"
       xml:space="preserve"><flowRegion
         id="flowRegion5721"><rect
           style="font-size:10px"
           y="510.93362"
           x="152.85715"
           height="62.142857"
           width="146.42857"
           id="rect5723" /></flowRegion><flowPara
         id="flowPara5725">camera</flowPara></flowRoot>    <g
       id="g4818"
       transform="matrix(0.97406109,0.22628521,-0.22628521,0.97406109,167.66227,-16.136414)">
      <path
         transform="matrix(-0.38380249,0,0,-0.38380249,208.87716,695.26435)"
         sodipodi:end="3.1415927"
         sodipodi:start="0"
         d="m 264.65997,416.97623 a 47.477169,47.477169 0 1 1 -94.95434,-10e-6 l 47.47717,10e-6 z"
         sodipodi:ry="47.477169"
         sodipodi:rx="47.477169"
         sodipodi:cy="416.97623"
         sodipodi:cx="217.1828"
         id="path2987"
         style="fill:none;stroke:#000000;stroke-width:3.17383623;stroke-miterlimit:4;stroke-opacity:1;stroke-dasharray:none"
         sodipodi:type="arc" />
      <path
         style="fill:none;stroke:#000000;stroke-width:1px;stroke-linecap:butt;stroke-linejoin:miter;stroke-opacity:1;marker-end:url(#Arrow1Mend)"
         d="m 89.015982,696.19217 0,-92.45483"
         id="path3226"
         inkscape:connector-curvature="0"
         transform="translate(36.505878,-182.92862)"
         sodipodi:nodetypes="cc" />
    </g>
    <flowRoot
       xml:space="preserve"
       id="flowRoot4822"
       style="font-size:20px;font-style:normal;font-weight:normal;line-height:125%;letter-spacing:0px;word-spacing:0px;fill:#000000;fill-opacity:1;stroke:none;font-family:Times New Roman;-inkscape-font-specification:Times New Roman"
       transform="matrix(0.6,0,0,0.6,108.62999,42.851565)"><flowRegion
         id="flowRegion4824"><rect
           id="rect4826"
           width="31.428572"
           height="30.357143"
           x="125.71429"
           y="618.02307" /></flowRegion><flowPara
         id="flowPara4828">?</flowPara></flowRoot>    <path
       sodipodi:nodetypes="ccc"
       inkscape:connector-curvature="0"
       id="path4630"
       d="m 169.52186,512.01355 0,-101.20483 0.4483,0"
       style="fill:none;stroke:#000000;stroke-width:1;stroke-linecap:butt;stroke-linejoin:miter;stroke-miterlimit:4;stroke-opacity:1;stroke-dasharray:1, 2;stroke-dashoffset:0" />
    <path
       sodipodi:nodetypes="cc"
       inkscape:connector-curvature="0"
       id="path4632"
       d="M 157.73615,516.47784 112.65661,430.28965"
       style="fill:none;stroke:#000000;stroke-width:1px;stroke-linecap:butt;stroke-linejoin:miter;stroke-opacity:1;marker-end:url(#Arrow1Mend)" />
    <g
       transform="matrix(0.3,0,0,0.3,111.47815,347.50867)"
       id="g5194">
      <g
         style="font-style:normal;font-variant:normal;font-weight:normal;font-stretch:normal;letter-spacing:normal;word-spacing:normal;text-anchor:start;fill:none;stroke:#000000;stroke-linecap:butt;stroke-linejoin:miter;stroke-miterlimit:10.43299961;stroke-opacity:1;stroke-dasharray:none;stroke-dashoffset:0"
         word-spacing="normal"
         letter-spacing="normal"
         font-size-adjust="none"
         font-stretch="normal"
         font-weight="normal"
         font-variant="normal"
         font-style="normal"
         stroke-miterlimit="10.433"
         xml:space="preserve"
         transform="matrix(0.74915631,0,0,-0.74915631,-131.10235,558.07086)"
         id="g5196"><path
           style="fill:#000000;stroke-width:0"
           inkscape:connector-curvature="0"
           id="path5198"
           d="m 491.44,423.09 -0.02,0.95 -0.07,0.93 -0.1,0.92 -0.15,0.9 -0.19,0.89 -0.22,0.86 -0.27,0.85 -0.3,0.83 -0.33,0.81 -0.37,0.79 -0.4,0.76 -0.44,0.74 -0.47,0.72 -0.49,0.68 -0.53,0.66 -0.55,0.64 -0.58,0.6 -0.6,0.57 -0.63,0.54 -0.65,0.5 -0.67,0.47 -0.7,0.44 -0.71,0.4 -0.74,0.36 -0.75,0.33 -0.77,0.28 -0.78,0.25 -0.8,0.2 -0.81,0.16 -0.82,0.11 -0.84,0.07 -0.84,0.02 v -1.09 c 5.03,0 11.76,-4.53 11.76,-17.14 0,-12.7 -7.03,-16.84 -11.72,-16.84 h 0 c -4.92,0 -11.75,4.28 -11.75,16.84 0,12.8 6.93,17.14 11.71,17.14 v 1.09 c -8.92,0 -16.53,-7.96 -16.53,-18.23 0,-10.22 7.67,-17.98 16.53,-17.98 9.06,0 16.59,7.92 16.59,17.98 z" /><polygon
           style="fill:#000000;stroke-width:0"
           id="polygon5200"
           points="483.77,419.65 483.77,426.82 482.52,426.82 482.52,425.14 467.22,425.14 467.22,426.82 465.99,426.82 465.99,419.65 467.22,419.65 467.22,421.34 482.52,421.34 482.52,419.65 " /></g>    </g>
    <g
       transform="matrix(0.3,0,0,0.3,81.450745,402.18409)"
       id="g5352">
      <g
         style="font-style:normal;font-variant:normal;font-weight:normal;font-stretch:normal;letter-spacing:normal;word-spacing:normal;text-anchor:start;fill:none;stroke:#000000;stroke-linecap:butt;stroke-linejoin:miter;stroke-miterlimit:10.43299961;stroke-opacity:1;stroke-dasharray:none;stroke-dashoffset:0"
         id="g5354"
         transform="matrix(0.74915631,0,0,-0.74915631,-131.10235,558.07086)"
         xml:space="preserve"
         stroke-miterlimit="10.433"
         font-style="normal"
         font-variant="normal"
         font-weight="normal"
         font-stretch="normal"
         font-size-adjust="none"
         letter-spacing="normal"
         word-spacing="normal"><path
           style="fill:#000000;stroke-width:0"
           inkscape:connector-curvature="0"
           d="m 478.19,431.11 0,0.31 -0.01,0.34 -0.02,0.36 -0.02,0.37 -0.03,0.39 -0.04,0.39 -0.04,0.41 -0.06,0.41 -0.07,0.42 -0.07,0.43 -0.09,0.42 -0.1,0.43 -0.12,0.42 -0.12,0.42 -0.14,0.41 -0.16,0.41 -0.17,0.4 -0.18,0.38 -0.2,0.37 -0.22,0.36 -0.23,0.34 -0.25,0.32 -0.28,0.3 -0.29,0.27 -0.31,0.25 -0.16,0.12 -0.17,0.1 -0.17,0.1 -0.18,0.1 -0.18,0.08 -0.19,0.08 -0.19,0.07 -0.2,0.06 -0.21,0.05 -0.21,0.05 -0.22,0.03 -0.22,0.02 -0.23,0.02 -0.23,0 -0.05,-1.09 c 2.44,0 2.73,-3.19 2.73,-6.03 0,-2.44 -0.39,-4.99 -1.59,-9.92 h -10.41 c 0.85,3.2 1.85,7.18 3.83,10.72 1.36,2.43 3.19,5.23 5.44,5.23 l 0.05,1.09 c -6.92,0 -14.6,-14.04 -14.6,-25.45 0,-4.69 1.44,-10.22 5.99,-10.22 v 1.1 c -1.66,0 -2.71,1.45 -2.71,6.07 0,2.1 0.3,4.99 1.6,9.86 h 10.37 c -0.54,-2.28 -1.59,-6.51 -3.5,-10.11 -1.73,-3.39 -3.62,-5.82 -5.76,-5.82 v -1.1 c 7.01,0 14.59,14.3 14.59,25.46 z"
           id="path5356" /><path
           style="fill:#000000;stroke-width:0"
           inkscape:connector-curvature="0"
           d="m 499.73,437.51 3.32,3.31 c 4.45,4.39 5.81,5.75 8.95,5.93 0.45,0.03 0.88,0.03 0.88,0.73 0,0.41 -0.4,0.52 -0.5,0.52 -1,0 -2.22,-0.14 -3.27,-0.14 -0.91,0 -3.14,0.14 -4.05,0.14 -0.28,0 -0.7,-0.11 -0.7,-0.77 0,-0.03 0,-0.45 0.53,-0.48 0.31,-0.04 1.19,-0.11 1.19,-0.88 0,-0.51 -0.53,-1.08 -0.88,-1.42 -0.28,-0.25 -4.7,-4.56 -6,-5.89 l -3.51,6.83 c -0.06,0.11 -0.17,0.34 -0.17,0.48 0,0.25 0.65,0.8 1.84,0.88 0.25,0 0.73,0.03 0.73,0.76 0,0.03 -0.03,0.49 -0.59,0.49 -0.73,0 -1.59,-0.11 -2.33,-0.11 -0.73,0 -1.53,-0.03 -2.26,-0.03 -0.6,0 -1.44,0 -2.07,0.03 -0.59,0.04 -1.31,0.11 -1.87,0.11 -0.17,0 -0.74,0 -0.74,-0.77 0,-0.48 0.46,-0.48 1.02,-0.48 2.02,0 2.19,-0.35 2.53,-1.05 l 4.89,-9.63 -1.95,-1.93 c -0.67,-0.64 -2.3,-2.21 -2.94,-2.86 -4.25,-4.22 -5.67,-5.69 -8.81,-5.83 -0.49,-0.03 -0.86,-0.03 -0.86,-0.77 0,-0.14 0.09,-0.48 0.48,-0.48 1,0 2.19,0.14 3.24,0.14 0.59,0 1.47,0 2.06,-0.03 0.63,-0.05 1.39,-0.11 1.99,-0.11 0.17,0 0.73,0 0.73,0.73 0,0.49 -0.42,0.52 -0.64,0.52 -0.34,0.05 -1.08,0.14 -1.08,0.87 0,0.57 0.45,1.02 1.22,1.79 l 7.08,6.93 4.22,-8.26 c 0.17,-0.35 0.2,-0.42 0.2,-0.46 0,-0.2 -0.63,-0.76 -1.84,-0.87 -0.32,-0.03 -0.77,-0.03 -0.77,-0.77 0,-0.03 0.03,-0.48 0.59,-0.48 0.74,0 1.61,0.11 2.33,0.11 0.74,0 1.55,0.03 2.27,0.03 0.59,0 1.44,0 2.06,-0.03 0.59,-0.05 1.33,-0.11 1.88,-0.11 0.17,0 0.73,0 0.73,0.76 0,0.49 -0.45,0.49 -1,0.49 -2.03,0 -2.2,0.39 -2.52,0.98 z"
           id="path5358" /><path
           style="fill:#000000;stroke-width:0"
           inkscape:connector-curvature="0"
           d="m 532.7,445.28 0.01,0.04 0.01,0.05 0.01,0.04 0.01,0.05 0.01,0.04 0.01,0.04 0.01,0.04 0.01,0.04 0.02,0.07 0.02,0.07 0.02,0.06 0.01,0.06 0.02,0.06 0.03,0.05 0.02,0.05 0.02,0.04 0.02,0.04 0.02,0.04 0.03,0.04 0.03,0.03 0.02,0.03 0.03,0.02 0.03,0.03 0.04,0.02 0.03,0.02 0.04,0.02 0.04,0.01 0.04,0.02 0.05,0.01 0.05,0.01 0.05,0.01 0.06,0.01 0.06,0.01 0.06,0 0.06,0.01 0.07,0 c 0.18,0.04 1.39,0.04 2.1,0.04 2.12,0 3.03,0 3.89,-0.29 1.58,-0.48 1.64,-1.5 1.64,-2.75 0,-0.54 0,-1 -0.24,-2.81 l -0.07,-0.39 c 0,-0.34 0.25,-0.51 0.59,-0.51 0.53,0 0.59,0.31 0.67,0.86 l 0.94,6.65 c 0,0.5 -0.42,0.5 -1.05,0.5 H 520.8 c -0.85,0 -0.93,0 -1.17,-0.73 l -2.2,-6.17 c -0.03,-0.15 -0.17,-0.46 -0.17,-0.63 0,-0.14 0.06,-0.48 0.59,-0.48 0.45,0 0.52,0.17 0.74,0.82 2.01,5.58 3.17,5.93 8.46,5.93 h 1.46 c 1.04,0 1.08,-0.04 1.08,-0.35 0,-0.03 0,-0.2 -0.14,-0.73 l -4.6,-18.33 c -0.31,-1.28 -0.42,-1.64 -4.08,-1.64 -1.25,0 -1.56,0 -1.56,-0.77 0,-0.09 0.06,-0.48 0.59,-0.48 0.97,0 2.02,0.11 2.99,0.11 0.98,0 2.03,0.03 3,0.03 0.98,0 2.17,0 3.14,-0.03 0.94,-0.05 1.98,-0.11 2.92,-0.11 0.28,0 0.81,0 0.81,0.76 0,0.49 -0.36,0.49 -1.43,0.49 -0.66,0 -1.36,0.05 -2.02,0.08 -1.19,0.09 -1.25,0.23 -1.25,0.65 0,0.25 0,0.32 0.13,0.8 z"
           id="path5360" /></g>    </g>
    <path
       sodipodi:nodetypes="cc"
       inkscape:connector-curvature="0"
       id="path4632-4"
       d="m 160.40042,544.11164 59.70449,-76.78506"
       style="fill:none;stroke:#0000ff;stroke-width:1px;stroke-linecap:butt;stroke-linejoin:miter;stroke-opacity:1;marker-end:url(#Arrow1MendK);display:inline" />
    <flowRoot
       transform="translate(-28.692851,35.262451)"
       style="font-size:10px;font-style:normal;font-weight:normal;line-height:125%;letter-spacing:0px;word-spacing:0px;fill:#000000;fill-opacity:1;stroke:none;display:inline;font-family:Times New Roman;-inkscape-font-specification:Times New Roman"
       id="flowRoot5719-0"
       xml:space="preserve"><flowRegion
         id="flowRegion5721-9"><rect
           style="font-size:10px"
           y="510.93362"
           x="152.85715"
           height="62.142857"
           width="146.42857"
           id="rect5723-4" /></flowRegion><flowPara
         id="flowPara5725-8">pixel</flowPara></flowRoot>    <rect
       style="fill:none;stroke:#000000;stroke-width:0.5;stroke-miterlimit:4;stroke-opacity:1;stroke-dasharray:none;stroke-dashoffset:0"
       id="rect4054"
       width="3.5714285"
       height="3.5714285"
       x="274.49072"
       y="496.20312"
       transform="matrix(0.97469174,0.22355315,-0.22355315,0.97469174,0,0)" />
    <g
       transform="translate(139.65359,208.34396)"
       id="g4115"
       style="fill:#0000ff">
      <g
         style="font-style:normal;font-variant:normal;font-weight:normal;font-stretch:normal;letter-spacing:normal;word-spacing:normal;text-anchor:start;fill:#0000ff;stroke:#000000;stroke-linecap:butt;stroke-linejoin:miter;stroke-miterlimit:10.43299961;stroke-opacity:1;stroke-dasharray:none;stroke-dashoffset:0"
         id="content"
         transform="matrix(0.23390549,0,0,-0.23390549,-40.93346,347.20724)"
         xml:space="preserve"
         stroke-miterlimit="10.433"
         font-style="normal"
         font-variant="normal"
         font-weight="normal"
         font-stretch="normal"
         font-size-adjust="none"
         letter-spacing="normal"
         word-spacing="normal"><path
           style="fill:#0000ff;stroke-width:0"
           inkscape:connector-curvature="0"
           d="m 478.19,431.11 0,0.31 -0.01,0.34 -0.02,0.36 -0.02,0.37 -0.03,0.39 -0.04,0.39 -0.04,0.41 -0.06,0.41 -0.07,0.42 -0.07,0.43 -0.09,0.42 -0.1,0.43 -0.12,0.42 -0.12,0.42 -0.14,0.41 -0.16,0.41 -0.17,0.4 -0.18,0.38 -0.2,0.37 -0.22,0.36 -0.23,0.34 -0.25,0.32 -0.28,0.3 -0.29,0.27 -0.31,0.25 -0.16,0.12 -0.17,0.1 -0.17,0.1 -0.18,0.1 -0.18,0.08 -0.19,0.08 -0.19,0.07 -0.2,0.06 -0.21,0.05 -0.21,0.05 -0.22,0.03 -0.22,0.02 -0.23,0.02 -0.23,0 -0.05,-1.09 c 2.44,0 2.73,-3.19 2.73,-6.03 0,-2.44 -0.39,-4.99 -1.59,-9.92 h -10.41 c 0.85,3.2 1.85,7.18 3.83,10.72 1.36,2.43 3.19,5.23 5.44,5.23 l 0.05,1.09 c -6.92,0 -14.6,-14.04 -14.6,-25.45 0,-4.69 1.44,-10.22 5.99,-10.22 v 1.1 c -1.66,0 -2.71,1.45 -2.71,6.07 0,2.1 0.3,4.99 1.6,9.86 h 10.37 c -0.54,-2.28 -1.59,-6.51 -3.5,-10.11 -1.73,-3.39 -3.62,-5.82 -5.76,-5.82 v -1.1 c 7.01,0 14.59,14.3 14.59,25.46 z"
           id="path4118" /><path
           style="fill:#0000ff;stroke-width:0"
           inkscape:connector-curvature="0"
           d="m 496.84,394.25 0,0.02 0,0.03 0,0.01 0,0.02 0,0.01 -0.01,0.02 0,0.01 -0.01,0.02 -0.01,0.02 -0.01,0.02 -0.01,0.02 -0.02,0.03 -0.01,0.02 -0.02,0.03 -0.02,0.03 -0.03,0.03 -0.02,0.03 -0.03,0.04 -0.02,0.02 -0.01,0.02 -0.02,0.02 -0.02,0.02 -0.02,0.02 -0.02,0.03 -0.02,0.02 -0.02,0.02 -0.02,0.03 -0.03,0.02 -0.02,0.03 -0.03,0.03 -0.03,0.03 -0.02,0.03 -0.03,0.03 -0.03,0.03 -0.03,0.03 -0.03,0.03 -0.04,0.04 -0.03,0.03 -0.04,0.04 -0.03,0.03 -0.04,0.04 -0.04,0.04 c -6.22,6.28 -7.81,15.69 -7.81,23.31 0,8.67 1.89,17.35 8.01,23.56 0.64,0.61 0.64,0.71 0.64,0.86 0,0.35 -0.18,0.49 -0.48,0.49 -0.5,0 -4.98,-3.38 -7.92,-9.7 -2.55,-5.49 -3.14,-11.02 -3.14,-15.21 0,-3.89 0.54,-9.9 3.28,-15.54 2.98,-6.13 7.28,-9.36 7.78,-9.36 0.3,0 0.48,0.14 0.48,0.5 z"
           id="path4120" /><path
           style="fill:#0000ff;stroke-width:0"
           inkscape:connector-curvature="0"
           d="m 516.32,421.25 0.03,0.13 0.03,0.15 0.04,0.16 0.05,0.18 0.05,0.19 0.06,0.21 0.07,0.22 0.07,0.22 0.08,0.23 0.09,0.24 0.09,0.25 0.11,0.24 0.11,0.25 0.12,0.25 0.13,0.25 0.13,0.25 0.15,0.24 0.16,0.24 0.16,0.23 0.18,0.22 0.19,0.22 0.2,0.2 0.21,0.19 0.22,0.18 0.23,0.16 0.24,0.14 0.13,0.07 0.13,0.06 0.13,0.05 0.14,0.05 0.14,0.05 0.14,0.04 0.15,0.03 0.15,0.03 0.15,0.02 0.15,0.02 0.16,0.01 0.16,0 c 0.25,0 1.44,0 2.49,-0.64 -1.39,-0.25 -2.39,-1.5 -2.39,-2.69 0,-0.79 0.55,-1.75 1.89,-1.75 1.09,0 2.69,0.89 2.69,2.89 0,2.6 -2.94,3.28 -4.63,3.28 -2.89,0 -4.64,-2.64 -5.23,-3.78 -1.25,3.28 -3.94,3.78 -5.38,3.78 -5.19,0 -8.03,-6.42 -8.03,-7.67 0,-0.5 0.5,-0.5 0.61,-0.5 0.39,0 0.55,0.11 0.64,0.55 1.69,5.28 4.98,6.53 6.67,6.53 0.96,0 2.69,-0.44 2.69,-3.33 0,-1.54 -0.84,-4.89 -2.69,-11.86 -0.79,-3.09 -2.53,-5.18 -4.73,-5.18 -0.3,0 -1.44,0 -2.49,0.65 1.25,0.24 2.35,1.28 2.35,2.69 0,1.34 -1.1,1.73 -1.85,1.73 -1.5,0 -2.75,-1.29 -2.75,-2.89 0,-2.28 2.5,-3.28 4.69,-3.28 3.3,0 5.08,3.49 5.24,3.78 0.59,-1.84 2.39,-3.78 5.37,-3.78 5.14,0 7.99,6.42 7.99,7.67 0,0.5 -0.46,0.5 -0.62,0.5 -0.43,0 -0.54,-0.2 -0.63,-0.54 -1.65,-5.33 -5.04,-6.53 -6.63,-6.53 -1.95,0 -2.75,1.59 -2.75,3.29 0,1.1 0.3,2.19 0.86,4.38 z"
           id="path4122" /><path
           style="fill:#0000ff;stroke-width:0"
           inkscape:connector-curvature="0"
           d="m 543.39,412.11 -0.12,-0.03 -0.11,-0.02 -0.11,-0.03 -0.1,-0.04 -0.1,-0.03 -0.1,-0.04 -0.09,-0.05 -0.09,-0.05 -0.08,-0.05 -0.08,-0.05 -0.07,-0.06 -0.07,-0.06 -0.07,-0.06 -0.06,-0.07 -0.06,-0.06 -0.06,-0.07 -0.05,-0.07 -0.05,-0.07 -0.04,-0.07 -0.04,-0.08 -0.04,-0.07 -0.04,-0.08 -0.03,-0.07 -0.02,-0.08 -0.03,-0.07 -0.02,-0.08 -0.02,-0.08 -0.01,-0.07 -0.01,-0.08 -0.01,-0.07 0,-0.08 -0.01,-0.07 c 0,-0.94 0.74,-1.28 1.37,-1.28 0.76,0 1.98,0.55 1.98,2.22 0,2.37 -2.72,3.03 -4.6,3.03 -5.23,0 -10.07,-4.8 -10.07,-9.64 0,-3 2.09,-6.06 6.45,-6.06 5.89,0 8.64,3.44 8.64,3.94 0,0.2 -0.31,0.59 -0.59,0.59 -0.21,0 -0.28,-0.08 -0.56,-0.36 -2.72,-3.2 -6.8,-3.2 -7.43,-3.2 -2.5,0 -3.62,1.7 -3.62,3.87 0,1 0.5,4.8 2.31,7.2 1.31,1.72 3.12,2.69 4.87,2.69 0.49,0 2.16,-0.06 3.04,-1.04 z"
           id="path4124" /><path
           style="fill:#0000ff;stroke-width:0"
           inkscape:connector-curvature="0"
           d="m 562.91,418.65 0,0.37 -0.01,0.39 -0.01,0.39 -0.01,0.41 -0.04,0.84 -0.06,0.88 -0.08,0.92 -0.11,0.95 -0.13,0.97 -0.17,1.01 -0.19,1.02 -0.23,1.03 -0.27,1.05 -0.3,1.06 -0.35,1.07 -0.4,1.07 -0.21,0.53 -0.22,0.53 -0.24,0.53 -0.25,0.53 c -2.98,6.12 -7.27,9.36 -7.77,9.36 -0.29,0 -0.5,-0.19 -0.5,-0.49 0,-0.15 0,-0.25 0.94,-1.15 4.89,-4.92 7.73,-12.85 7.73,-23.27 0,-8.51 -1.84,-17.28 -8.03,-23.56 -0.64,-0.59 -0.64,-0.7 -0.64,-0.84 0,-0.3 0.21,-0.5 0.5,-0.5 0.5,0 4.97,3.39 7.92,9.71 2.54,5.47 3.13,11 3.13,15.19 z"
           id="path4126" /></g>    </g>
    <g
       id="g4714"
       transform="translate(82.327432,302.4962)">
      <g
         word-spacing="normal"
         letter-spacing="normal"
         font-size-adjust="none"
         font-stretch="normal"
         font-weight="normal"
         font-variant="normal"
         font-style="normal"
         stroke-miterlimit="10.433"
         xml:space="preserve"
         transform="matrix(0.23390549,0,0,-0.23390549,-40.93346,347.20724)"
         id="g4716"
         style="font-style:normal;font-variant:normal;font-weight:normal;font-stretch:normal;letter-spacing:normal;word-spacing:normal;text-anchor:start;fill:none;stroke:#000000;stroke-linecap:butt;stroke-linejoin:miter;stroke-miterlimit:10.43299961;stroke-opacity:1;stroke-dasharray:none;stroke-dashoffset:0"><path
           id="path4718"
           d="m 472.16,421.25 0.03,0.13 0.04,0.15 0.04,0.16 0.04,0.18 0.06,0.19 0.06,0.21 0.06,0.22 0.07,0.22 0.08,0.23 0.09,0.24 0.1,0.25 0.1,0.24 0.11,0.25 0.12,0.25 0.13,0.25 0.14,0.25 0.15,0.24 0.15,0.24 0.17,0.23 0.18,0.22 0.18,0.22 0.2,0.2 0.21,0.19 0.22,0.18 0.23,0.16 0.25,0.14 0.12,0.07 0.13,0.06 0.14,0.05 0.13,0.05 0.14,0.05 0.14,0.04 0.15,0.03 0.15,0.03 0.15,0.02 0.16,0.02 0.16,0.01 0.16,0 c 0.25,0 1.44,0 2.48,-0.64 -1.39,-0.25 -2.39,-1.5 -2.39,-2.69 0,-0.79 0.55,-1.75 1.89,-1.75 1.1,0 2.69,0.89 2.69,2.89 0,2.6 -2.94,3.28 -4.63,3.28 -2.89,0 -4.64,-2.64 -5.23,-3.78 -1.25,3.28 -3.94,3.78 -5.37,3.78 -5.19,0 -8.04,-6.42 -8.04,-7.67 0,-0.5 0.5,-0.5 0.61,-0.5 0.39,0 0.55,0.11 0.64,0.55 1.69,5.28 4.99,6.53 6.68,6.53 0.95,0 2.68,-0.44 2.68,-3.33 0,-1.54 -0.84,-4.89 -2.68,-11.86 -0.8,-3.09 -2.54,-5.18 -4.74,-5.18 -0.3,0 -1.44,0 -2.48,0.65 1.25,0.24 2.34,1.28 2.34,2.69 0,1.34 -1.09,1.73 -1.84,1.73 -1.5,0 -2.75,-1.29 -2.75,-2.89 0,-2.28 2.5,-3.28 4.68,-3.28 3.3,0 5.08,3.49 5.24,3.78 0.59,-1.84 2.39,-3.78 5.37,-3.78 5.14,0 7.99,6.42 7.99,7.67 0,0.5 -0.45,0.5 -0.61,0.5 -0.44,0 -0.55,-0.2 -0.64,-0.54 -1.64,-5.33 -5.03,-6.53 -6.63,-6.53 -1.95,0 -2.75,1.59 -2.75,3.29 0,1.1 0.3,2.19 0.86,4.38 z"
           inkscape:connector-curvature="0"
           style="fill:#000000;stroke-width:0" /><path
           id="path4720"
           d="m 499.23,412.11 -0.12,-0.03 -0.11,-0.02 -0.11,-0.03 -0.1,-0.04 -0.1,-0.03 -0.1,-0.04 -0.09,-0.05 -0.09,-0.05 -0.08,-0.05 -0.08,-0.05 -0.07,-0.06 -0.07,-0.06 -0.07,-0.06 -0.06,-0.07 -0.06,-0.06 -0.06,-0.07 -0.05,-0.07 -0.05,-0.07 -0.04,-0.07 -0.04,-0.08 -0.04,-0.07 -0.04,-0.08 -0.03,-0.07 -0.02,-0.08 -0.03,-0.07 -0.02,-0.08 -0.02,-0.08 -0.01,-0.07 -0.01,-0.08 -0.01,-0.07 0,-0.08 0,-0.07 c 0,-0.94 0.73,-1.28 1.35,-1.28 0.77,0 1.99,0.55 1.99,2.22 0,2.37 -2.72,3.03 -4.59,3.03 -5.24,0 -10.08,-4.8 -10.08,-9.64 0,-3 2.09,-6.06 6.45,-6.06 5.89,0 8.64,3.44 8.64,3.94 0,0.2 -0.31,0.59 -0.59,0.59 -0.21,0 -0.28,-0.08 -0.57,-0.36 -2.71,-3.2 -6.79,-3.2 -7.42,-3.2 -2.5,0 -3.62,1.7 -3.62,3.87 0,1 0.5,4.8 2.31,7.2 1.31,1.72 3.13,2.69 4.88,2.69 0.48,0 2.15,-0.06 3.03,-1.04 z"
           inkscape:connector-curvature="0"
           style="fill:#000000;stroke-width:0" /></g>    </g>
  </g>
  <g
     style="display:inline"
     transform="translate(-51.719359,-580.36069)"
     inkscape:label="text"
     id="layer2"
     inkscape:groupmode="layer">
    <flowRoot
       transform="translate(23.125876,451.78366)"
       style="font-size:10px;font-style:normal;font-weight:normal;line-height:125%;letter-spacing:0px;word-spacing:0px;fill:#000000;fill-opacity:1;stroke:none;font-family:Times New Roman;-inkscape-font-specification:Times New Roman"
       id="flowRoot3835"
       xml:space="preserve"><flowRegion
         id="flowRegion3837"><rect
           style="font-size:10px"
           y="285.9903"
           x="104.55079"
           height="47.982246"
           width="50.507626"
           id="rect3839" /></flowRegion><flowPara
         id="flowPara3841">(a)</flowPara></flowRoot>    <flowRoot
       transform="translate(164.80969,451.78366)"
       style="font-size:10px;font-style:normal;font-weight:normal;line-height:125%;letter-spacing:0px;word-spacing:0px;fill:#000000;fill-opacity:1;stroke:none;font-family:Times New Roman;-inkscape-font-specification:Times New Roman"
       id="flowRoot3835-4"
       xml:space="preserve"><flowRegion
         id="flowRegion3837-0"><rect
           style="font-size:10px"
           y="285.9903"
           x="104.55079"
           height="47.982246"
           width="50.507626"
           id="rect3839-9" /></flowRegion><flowPara
         id="flowPara3841-4">(b)</flowPara></flowRoot>    <flowRoot
       transform="translate(169.22073,388.43862)"
       style="font-size:10px;font-style:normal;font-weight:normal;line-height:125%;letter-spacing:0px;word-spacing:0px;fill:#ffff00;fill-opacity:1;stroke:none;font-family:Times New Roman;-inkscape-font-specification:Times New Roman"
       id="flowRoot3835-4-8"
       xml:space="preserve"><flowRegion
         id="flowRegion3837-0-8"><rect
           style="font-size:10px;fill:#ffff00"
           y="285.9903"
           x="104.55079"
           height="47.982246"
           width="50.507626"
           id="rect3839-9-2" /></flowRegion><flowPara
         id="flowPara3841-4-4">Moon</flowPara></flowRoot>    <flowRoot
       transform="translate(133.85844,302.91751)"
       style="font-size:10px;font-style:normal;font-weight:normal;line-height:125%;letter-spacing:0px;word-spacing:0px;fill:#ffff00;fill-opacity:1;stroke:none;font-family:Times New Roman;-inkscape-font-specification:Times New Roman"
       id="flowRoot3835-4-8-5"
       xml:space="preserve"><flowRegion
         id="flowRegion3837-0-8-5"><rect
           style="font-size:10px;fill:#ffff00"
           y="285.9903"
           x="104.55079"
           height="47.982246"
           width="50.507626"
           id="rect3839-9-2-1" /></flowRegion><flowPara
         id="flowPara3841-4-4-7">Jupiter</flowPara></flowRoot>    <flowRoot
       transform="translate(303.126,411.52379)"
       style="font-size:10px;font-style:normal;font-weight:normal;line-height:125%;letter-spacing:0px;word-spacing:0px;fill:#ffff00;fill-opacity:1;stroke:none;font-family:Times New Roman;-inkscape-font-specification:Times New Roman"
       id="flowRoot3835-4-8-1"
       xml:space="preserve"><flowRegion
         id="flowRegion3837-0-8-1"><rect
           style="font-size:10px;fill:#ffff00"
           y="285.9903"
           x="104.55079"
           height="47.982246"
           width="50.507626"
           id="rect3839-9-2-5" /></flowRegion><flowPara
         id="flowPara3841-4-4-2">Sun</flowPara></flowRoot>    <flowRoot
       transform="translate(329.85624,451.78366)"
       style="font-size:10px;font-style:normal;font-weight:normal;line-height:125%;letter-spacing:0px;word-spacing:0px;fill:#000000;fill-opacity:1;stroke:none;font-family:Times New Roman;-inkscape-font-specification:Times New Roman"
       id="flowRoot3835-4-1"
       xml:space="preserve"><flowRegion
         id="flowRegion3837-0-7"><rect
           style="font-size:10px"
           y="285.9903"
           x="104.55079"
           height="47.982246"
           width="50.507626"
           id="rect3839-9-4" /></flowRegion><flowPara
         id="flowPara3841-4-0">(c)</flowPara></flowRoot>  </g>
  <g
     style="display:inline"
     inkscape:label="pixel"
     id="layer3"
     inkscape:groupmode="layer"
     transform="translate(0,4.2578126e-6)">
    <path
       inkscape:connector-curvature="0"
       id="path3052"
       d="m 59.682922,145.44105 35.498401,8.24667"
       style="fill:none;stroke:#000000;stroke-width:1px;stroke-linecap:butt;stroke-linejoin:miter;stroke-opacity:1" />
  </g>
</svg>
